<svg xmlns="http://www.w3.org/2000/svg" xmlns:xlink="http://www.w3.org/1999/xlink" width="200" zoomAndPan="magnify" viewBox="0 0 150 37.5" height="50" preserveAspectRatio="xMidYMid meet" version="1.0"><defs><g/><clipPath id="6e8e5bcf62"><path d="M 29 21 L 30.570312 21 L 30.570312 24 L 29 24 Z M 29 21 " clip-rule="nonzero"/></clipPath><clipPath id="8e51ffdc55"><path d="M 27 20.007812 L 29 20.007812 L 29 22 L 27 22 Z M 27 20.007812 " clip-rule="nonzero"/></clipPath><clipPath id="59b6bdb998"><path d="M 22.429688 22 L 27 22 L 27 29.289062 L 22.429688 29.289062 Z M 22.429688 22 " clip-rule="nonzero"/></clipPath><clipPath id="593e1f83f8"><path d="M 20.988281 20.007812 L 28 20.007812 L 28 25 L 20.988281 25 Z M 20.988281 20.007812 " clip-rule="nonzero"/></clipPath><clipPath id="e0bd0125d9"><path d="M 118 7.441406 L 138.433594 7.441406 L 138.433594 30.09375 L 118 30.09375 Z M 118 7.441406 " clip-rule="nonzero"/></clipPath><clipPath id="906e71d9f8"><path d="M 99.230469 9 L 136 9 L 136 28 L 99.230469 28 Z M 99.230469 9 " clip-rule="nonzero"/></clipPath></defs><g clip-path="url(#6e8e5bcf62)"><path fill="#e58013" d="M 29.929688 21.648438 L 30.15625 22.175781 L 30.660156 22.175781 L 30.296875 22.535156 L 30.382812 23.035156 L 29.929688 22.796875 L 29.480469 23.035156 L 29.566406 22.535156 L 29.203125 22.175781 L 29.707031 22.175781 L 29.929688 21.648438 " fill-opacity="1" fill-rule="nonzero"/></g><g clip-path="url(#8e51ffdc55)"><path fill="#264790" d="M 28.300781 20.214844 L 28.453125 20.570312 L 28.792969 20.570312 L 28.546875 20.808594 L 28.605469 21.148438 L 28.300781 20.988281 L 28 21.148438 L 28.054688 20.808594 L 27.8125 20.570312 L 28.152344 20.570312 L 28.300781 20.214844 " fill-opacity="1" fill-rule="nonzero"/></g><path fill="#e58013" d="M 27.273438 22.894531 L 27.375 23.128906 L 27.597656 23.128906 L 27.4375 23.285156 L 27.476562 23.507812 L 27.273438 23.402344 L 27.078125 23.507812 L 27.113281 23.285156 L 26.953125 23.128906 L 27.175781 23.128906 L 27.273438 22.894531 " fill-opacity="1" fill-rule="nonzero"/><g clip-path="url(#59b6bdb998)"><path fill="#e58013" d="M 23.019531 25.140625 C 22.695312 27.035156 23.898438 28.835938 25.734375 29.289062 C 25.644531 29.28125 25.554688 29.269531 25.464844 29.253906 C 23.480469 28.914062 22.144531 27.03125 22.484375 25.050781 C 22.820312 23.066406 24.703125 21.730469 26.6875 22.070312 C 26.777344 22.085938 26.867188 22.105469 26.953125 22.125 C 25.070312 21.945312 23.34375 23.246094 23.019531 25.140625 " fill-opacity="1" fill-rule="evenodd"/></g><path fill="#264790" d="M 28.527344 27.949219 C 25.527344 29.65625 22.566406 25.484375 25.171875 23.21875 C 25.089844 23.265625 25.003906 23.316406 24.925781 23.375 C 23.613281 24.304688 23.300781 26.125 24.234375 27.4375 C 25.164062 28.75 26.984375 29.0625 28.296875 28.128906 C 28.375 28.074219 28.453125 28.011719 28.527344 27.949219 " fill-opacity="1" fill-rule="evenodd"/><g clip-path="url(#593e1f83f8)"><path fill="#264790" d="M 26.316406 21.078125 L 26.5 21.515625 C 26.355469 21.5 26.214844 21.492188 26.070312 21.492188 C 25.097656 21.492188 24.148438 21.835938 23.398438 22.464844 C 23.148438 22.671875 22.929688 22.90625 22.734375 23.164062 L 22.546875 22.707031 L 22.523438 22.648438 L 22.339844 22.636719 L 21.738281 22.59375 L 21.3125 22.5625 L 21.296875 22.5625 L 21.296875 23.832031 C 21.339844 23.855469 21.371094 23.90625 21.371094 23.957031 C 21.371094 24.003906 21.347656 24.046875 21.316406 24.074219 C 21.308594 24.078125 21.304688 24.082031 21.296875 24.085938 L 21.296875 24.226562 L 21.453125 24.535156 L 20.988281 24.535156 L 21.140625 24.230469 L 21.140625 24.09375 C 21.09375 24.070312 21.066406 24.023438 21.066406 23.96875 C 21.066406 23.914062 21.089844 23.871094 21.128906 23.84375 C 21.132812 23.84375 21.136719 23.839844 21.140625 23.839844 C 21.140625 23.835938 21.144531 23.832031 21.148438 23.832031 L 21.148438 22.550781 L 23.699219 20.125 L 26.570312 20.050781 L 27.21875 20.035156 L 26.316406 21.078125 " fill-opacity="1" fill-rule="evenodd"/></g><g clip-path="url(#e0bd0125d9)"><path fill="#264790" d="M 127.191406 7.449219 C 123.726562 7.449219 120.625 9.007812 118.550781 11.464844 C 120.457031 9.492188 123.132812 8.261719 126.09375 8.261719 C 131.890625 8.261719 136.585938 12.960938 136.585938 18.757812 C 136.585938 24.550781 131.890625 29.25 126.09375 29.25 C 123.132812 29.25 120.457031 28.023438 118.550781 26.050781 C 120.625 28.503906 123.726562 30.0625 127.191406 30.0625 C 133.4375 30.0625 138.5 25 138.5 18.757812 C 138.5 12.511719 133.4375 7.449219 127.191406 7.449219 " fill-opacity="1" fill-rule="nonzero"/></g><g clip-path="url(#906e71d9f8)"><path fill="#f68712" d="M 116.4375 21.34375 C 116.925781 21.34375 117.320312 20.949219 117.320312 20.460938 C 117.320312 19.972656 116.925781 19.578125 116.4375 19.578125 L 111.023438 19.578125 C 110.535156 19.578125 110.140625 19.972656 110.140625 20.460938 C 110.140625 20.949219 110.535156 21.34375 111.023438 21.34375 Z M 107.699219 19.578125 L 104.695312 19.578125 C 104.140625 19.578125 103.730469 20.089844 103.84375 20.632812 C 103.84375 20.636719 103.84375 20.644531 103.847656 20.648438 C 103.929688 21.054688 104.289062 21.34375 104.699219 21.34375 L 107.699219 21.34375 C 108.1875 21.34375 108.582031 20.949219 108.582031 20.460938 C 108.582031 19.972656 108.1875 19.578125 107.699219 19.578125 Z M 131.597656 16.332031 C 130.964844 17.242188 130.238281 18.539062 129.011719 18.53125 C 128.472656 18.527344 127.953125 18.734375 127.675781 19.195312 L 127.363281 19.710938 L 127.019531 19.246094 L 127.28125 18.921875 C 127.621094 18.5 127.632812 17.941406 127.445312 17.4375 C 127.015625 16.289062 127.984375 15.160156 128.617188 14.25 C 129.042969 13.644531 129.917969 12.65625 130.277344 12.59375 L 127.90625 15.988281 C 127.847656 16.074219 127.867188 16.191406 127.953125 16.25 C 128.039062 16.3125 128.15625 16.289062 128.21875 16.203125 L 130.632812 12.742188 C 130.6875 12.664062 130.792969 12.632812 130.886719 12.667969 L 130.890625 12.667969 C 131.019531 12.71875 131.070312 12.875 130.988281 12.992188 L 128.574219 16.453125 C 128.511719 16.539062 128.535156 16.65625 128.621094 16.714844 C 128.707031 16.777344 128.824219 16.753906 128.882812 16.667969 L 131.335938 13.15625 C 131.402344 13.058594 131.539062 13.035156 131.632812 13.101562 L 131.636719 13.101562 L 131.640625 13.105469 C 131.734375 13.171875 131.757812 13.304688 131.691406 13.402344 L 129.238281 16.917969 C 129.179688 17.003906 129.199219 17.121094 129.285156 17.179688 C 129.371094 17.242188 129.488281 17.21875 129.550781 17.132812 L 131.964844 13.671875 C 132.042969 13.558594 132.210938 13.550781 132.300781 13.65625 L 132.304688 13.65625 C 132.371094 13.730469 132.375 13.839844 132.320312 13.921875 L 129.902344 17.382812 C 129.84375 17.46875 129.863281 17.585938 129.949219 17.644531 C 130.035156 17.703125 130.15625 17.683594 130.214844 17.597656 L 132.585938 14.203125 C 132.648438 14.5625 132.023438 15.722656 131.597656 16.332031 Z M 130.5 25.636719 C 130.144531 25.867188 129.671875 25.746094 129.464844 25.378906 L 126.820312 20.609375 L 123.902344 25.449219 C 123.683594 25.8125 123.207031 25.914062 122.863281 25.671875 C 122.515625 25.429688 122.449219 24.945312 122.710938 24.617188 L 126.457031 19.953125 L 125.925781 18.992188 C 125.664062 18.519531 125.152344 18.25 124.609375 18.28125 C 124.015625 18.3125 123.394531 17.980469 122.792969 17.046875 C 121.867188 15.613281 121.34375 13.304688 122.1875 12.757812 C 123.03125 12.214844 124.921875 13.644531 125.84375 15.078125 C 126.445312 16.007812 126.492188 16.714844 126.21875 17.242188 C 125.96875 17.722656 126.003906 18.300781 126.328125 18.734375 L 130.6875 24.589844 C 130.9375 24.929688 130.851562 25.410156 130.5 25.636719 Z M 126.144531 9.582031 C 124.253906 9.582031 122.492188 10.15625 121.03125 11.136719 L 121.421875 11.136719 C 121.867188 11.136719 122.246094 11.488281 122.257812 11.933594 C 122.269531 12.398438 121.898438 12.777344 121.4375 12.777344 L 118.984375 12.777344 C 118.496094 12.777344 118.101562 13.171875 118.101562 13.65625 C 118.101562 14.144531 118.496094 14.539062 118.984375 14.539062 L 120.066406 14.539062 C 120.511719 14.539062 120.890625 14.890625 120.902344 15.335938 C 120.914062 15.796875 120.542969 16.175781 120.085938 16.175781 L 115.144531 16.175781 C 114.660156 16.175781 114.265625 16.570312 114.265625 17.058594 C 114.265625 17.546875 114.660156 17.941406 115.144531 17.941406 L 122.210938 17.941406 C 122.65625 17.941406 123.03125 18.292969 123.046875 18.738281 C 123.058594 19.199219 122.6875 19.578125 122.226562 19.578125 L 119.761719 19.578125 C 119.273438 19.578125 118.878906 19.972656 118.878906 20.460938 C 118.878906 20.949219 119.273438 21.34375 119.761719 21.34375 L 122.445312 21.34375 C 122.890625 21.34375 123.269531 21.691406 123.28125 22.136719 C 123.292969 22.601562 122.921875 22.980469 122.460938 22.980469 L 115.925781 22.980469 C 115.4375 22.980469 115.042969 23.375 115.042969 23.863281 C 115.042969 24.347656 115.4375 24.746094 115.925781 24.746094 L 121.320312 24.746094 C 121.765625 24.746094 122.144531 25.09375 122.15625 25.539062 C 122.167969 26.003906 121.796875 26.382812 121.335938 26.382812 L 121.042969 26.382812 C 122.5 27.359375 124.257812 27.929688 126.144531 27.929688 C 131.210938 27.929688 135.316406 23.824219 135.316406 18.757812 C 135.316406 13.691406 131.210938 9.582031 126.144531 9.582031 Z M 112.601562 22.980469 L 111.742188 22.980469 C 111.015625 22.980469 110.605469 23.816406 111.050781 24.390625 C 111.058594 24.394531 111.0625 24.402344 111.066406 24.40625 C 111.230469 24.621094 111.484375 24.746094 111.753906 24.746094 L 112.601562 24.746094 C 113.089844 24.746094 113.484375 24.347656 113.484375 23.863281 C 113.484375 23.375 113.089844 22.980469 112.601562 22.980469 Z M 112.179688 14.539062 L 115.660156 14.539062 C 116.148438 14.539062 116.542969 14.144531 116.542969 13.65625 C 116.542969 13.171875 116.148438 12.777344 115.660156 12.777344 L 112.179688 12.777344 C 111.691406 12.777344 111.296875 13.171875 111.296875 13.65625 C 111.296875 14.144531 111.691406 14.539062 112.179688 14.539062 Z M 102.929688 16.175781 L 100.199219 16.175781 C 99.789062 16.175781 99.429688 16.464844 99.347656 16.871094 C 99.34375 16.875 99.34375 16.882812 99.34375 16.886719 C 99.230469 17.429688 99.640625 17.941406 100.195312 17.941406 L 102.929688 17.941406 C 103.414062 17.941406 103.808594 17.546875 103.808594 17.058594 C 103.808594 16.570312 103.414062 16.175781 102.929688 16.175781 Z M 106.25 17.941406 L 111.824219 17.941406 C 112.308594 17.941406 112.703125 17.546875 112.703125 17.058594 C 112.703125 16.570312 112.308594 16.175781 111.824219 16.175781 L 106.25 16.175781 C 105.765625 16.175781 105.367188 16.570312 105.367188 17.058594 C 105.367188 17.546875 105.765625 17.941406 106.25 17.941406 Z M 108.164062 14.539062 L 108.855469 14.539062 C 109.34375 14.539062 109.738281 14.144531 109.738281 13.65625 C 109.738281 13.171875 109.34375 12.777344 108.855469 12.777344 L 108.175781 12.777344 C 107.90625 12.777344 107.652344 12.898438 107.488281 13.113281 L 107.476562 13.128906 C 107.027344 13.703125 107.4375 14.539062 108.164062 14.539062 " fill-opacity="1" fill-rule="nonzero"/></g><g fill="#e58013" fill-opacity="1"><g transform="translate(14.817543, 17.807032)"><g><path d="M 7.109375 0 L 5.03125 -3.65625 L 3.546875 -3.65625 L 3.546875 0 L 1.21875 0 L 1.21875 -10.703125 L 5.546875 -10.703125 C 6.253906 -10.703125 6.890625 -10.546875 7.453125 -10.234375 C 8.015625 -9.929688 8.457031 -9.515625 8.78125 -8.984375 C 9.113281 -8.453125 9.28125 -7.84375 9.28125 -7.15625 C 9.28125 -6.457031 9.101562 -5.835938 8.75 -5.296875 C 8.394531 -4.753906 7.921875 -4.335938 7.328125 -4.046875 L 9.703125 0 Z M 3.546875 -8.5625 L 3.546875 -5.796875 L 5.390625 -5.796875 C 5.867188 -5.796875 6.242188 -5.925781 6.515625 -6.1875 C 6.796875 -6.445312 6.9375 -6.773438 6.9375 -7.171875 C 6.9375 -7.578125 6.796875 -7.910156 6.515625 -8.171875 C 6.242188 -8.429688 5.867188 -8.5625 5.390625 -8.5625 Z M 3.546875 -8.5625 "/></g></g></g><g fill="#e58013" fill-opacity="1"><g transform="translate(24.916288, 17.807032)"><g><path d="M 9.078125 -4.15625 C 9.078125 -3.9375 9.0625 -3.71875 9.03125 -3.5 L 2.796875 -3.5 C 2.890625 -2.9375 3.113281 -2.503906 3.46875 -2.203125 C 3.820312 -1.898438 4.269531 -1.75 4.8125 -1.75 C 5.195312 -1.75 5.539062 -1.832031 5.84375 -2 C 6.15625 -2.175781 6.394531 -2.410156 6.5625 -2.703125 L 8.90625 -2.703125 C 8.601562 -1.804688 8.082031 -1.09375 7.34375 -0.5625 C 6.613281 -0.03125 5.769531 0.234375 4.8125 0.234375 C 4 0.234375 3.269531 0.0390625 2.625 -0.34375 C 1.976562 -0.726562 1.46875 -1.25 1.09375 -1.90625 C 0.71875 -2.5625 0.53125 -3.300781 0.53125 -4.125 C 0.53125 -4.945312 0.71875 -5.6875 1.09375 -6.34375 C 1.46875 -7 1.976562 -7.519531 2.625 -7.90625 C 3.269531 -8.289062 4 -8.484375 4.8125 -8.484375 C 5.65625 -8.484375 6.394531 -8.285156 7.03125 -7.890625 C 7.675781 -7.492188 8.175781 -6.96875 8.53125 -6.3125 C 8.894531 -5.664062 9.078125 -4.945312 9.078125 -4.15625 Z M 4.8125 -6.59375 C 4.3125 -6.59375 3.890625 -6.453125 3.546875 -6.171875 C 3.210938 -5.898438 2.984375 -5.519531 2.859375 -5.03125 L 6.84375 -5.03125 C 6.519531 -6.070312 5.84375 -6.59375 4.8125 -6.59375 Z M 4.8125 -6.59375 "/></g></g></g><g fill="#e58013" fill-opacity="1"><g transform="translate(34.510858, 17.807032)"><g><path d="M 4 0.234375 C 3.3125 0.234375 2.707031 0.113281 2.1875 -0.125 C 1.664062 -0.375 1.257812 -0.71875 0.96875 -1.15625 C 0.675781 -1.601562 0.53125 -2.125 0.53125 -2.71875 L 2.703125 -2.71875 C 2.710938 -2.351562 2.84375 -2.078125 3.09375 -1.890625 C 3.351562 -1.710938 3.679688 -1.625 4.078125 -1.625 C 4.390625 -1.625 4.660156 -1.691406 4.890625 -1.828125 C 5.128906 -1.960938 5.25 -2.164062 5.25 -2.4375 C 5.25 -2.726562 5.09375 -2.929688 4.78125 -3.046875 C 4.476562 -3.160156 4.109375 -3.253906 3.671875 -3.328125 C 3.335938 -3.378906 2.992188 -3.453125 2.640625 -3.546875 C 2.296875 -3.640625 1.972656 -3.769531 1.671875 -3.9375 C 1.378906 -4.113281 1.140625 -4.351562 0.953125 -4.65625 C 0.765625 -4.96875 0.671875 -5.367188 0.671875 -5.859375 C 0.671875 -6.367188 0.8125 -6.820312 1.09375 -7.21875 C 1.375 -7.625 1.757812 -7.9375 2.25 -8.15625 C 2.75 -8.375 3.332031 -8.484375 4 -8.484375 C 4.664062 -8.484375 5.242188 -8.367188 5.734375 -8.140625 C 6.234375 -7.910156 6.617188 -7.585938 6.890625 -7.171875 C 7.160156 -6.765625 7.296875 -6.285156 7.296875 -5.734375 L 5.1875 -5.734375 C 5.1875 -6.054688 5.070312 -6.296875 4.84375 -6.453125 C 4.625 -6.617188 4.320312 -6.703125 3.9375 -6.703125 C 3.59375 -6.703125 3.320312 -6.628906 3.125 -6.484375 C 2.9375 -6.335938 2.84375 -6.144531 2.84375 -5.90625 C 2.84375 -5.632812 2.992188 -5.445312 3.296875 -5.34375 C 3.609375 -5.25 3.976562 -5.164062 4.40625 -5.09375 C 4.738281 -5.03125 5.082031 -4.953125 5.4375 -4.859375 C 5.789062 -4.773438 6.117188 -4.644531 6.421875 -4.46875 C 6.734375 -4.300781 6.984375 -4.0625 7.171875 -3.75 C 7.359375 -3.445312 7.453125 -3.046875 7.453125 -2.546875 C 7.453125 -1.992188 7.304688 -1.503906 7.015625 -1.078125 C 6.734375 -0.660156 6.332031 -0.335938 5.8125 -0.109375 C 5.300781 0.117188 4.695312 0.234375 4 0.234375 Z M 4 0.234375 "/></g></g></g><g fill="#e58013" fill-opacity="1"><g transform="translate(42.531799, 17.807032)"><g><path d="M 5.109375 -1.984375 L 6.109375 -1.984375 L 6.109375 0 L 4.53125 0 C 3.625 0 2.910156 -0.257812 2.390625 -0.78125 C 1.867188 -1.3125 1.609375 -2.035156 1.609375 -2.953125 L 1.609375 -6.46875 L 0.109375 -6.46875 L 0.109375 -6.9375 L 3.375 -10.40625 L 3.796875 -10.40625 L 3.796875 -8.25 L 6.0625 -8.25 L 6.0625 -6.46875 L 3.828125 -6.46875 L 3.828125 -3.234375 C 3.828125 -2.835938 3.9375 -2.53125 4.15625 -2.3125 C 4.382812 -2.09375 4.703125 -1.984375 5.109375 -1.984375 Z M 5.109375 -1.984375 "/></g></g></g><g fill="#e58013" fill-opacity="1"><g transform="translate(49.101328, 17.807032)"><g><path d="M 7.8125 -8.265625 L 9.46875 -8.265625 L 9.46875 -0.015625 L 7.71875 -0.015625 L 7.53125 -0.75 C 7.175781 -0.445312 6.769531 -0.207031 6.3125 -0.03125 C 5.863281 0.144531 5.378906 0.234375 4.859375 0.234375 C 4.035156 0.234375 3.296875 0.0390625 2.640625 -0.34375 C 1.992188 -0.726562 1.476562 -1.25 1.09375 -1.90625 C 0.71875 -2.5625 0.53125 -3.304688 0.53125 -4.140625 C 0.53125 -4.960938 0.71875 -5.703125 1.09375 -6.359375 C 1.476562 -7.015625 1.992188 -7.53125 2.640625 -7.90625 C 3.296875 -8.289062 4.035156 -8.484375 4.859375 -8.484375 C 5.390625 -8.484375 5.882812 -8.394531 6.34375 -8.21875 C 6.800781 -8.039062 7.207031 -7.789062 7.5625 -7.46875 Z M 5.046875 -1.875 C 5.472656 -1.875 5.851562 -1.96875 6.1875 -2.15625 C 6.53125 -2.351562 6.800781 -2.625 7 -2.96875 C 7.195312 -3.3125 7.296875 -3.703125 7.296875 -4.140625 C 7.296875 -4.566406 7.195312 -4.953125 7 -5.296875 C 6.800781 -5.640625 6.53125 -5.910156 6.1875 -6.109375 C 5.851562 -6.304688 5.472656 -6.40625 5.046875 -6.40625 C 4.609375 -6.40625 4.21875 -6.304688 3.875 -6.109375 C 3.539062 -5.910156 3.273438 -5.640625 3.078125 -5.296875 C 2.890625 -4.953125 2.796875 -4.566406 2.796875 -4.140625 C 2.796875 -3.703125 2.890625 -3.3125 3.078125 -2.96875 C 3.273438 -2.632812 3.539062 -2.367188 3.875 -2.171875 C 4.21875 -1.972656 4.609375 -1.875 5.046875 -1.875 Z M 5.046875 -1.875 "/></g></g></g><g fill="#e58013" fill-opacity="1"><g transform="translate(59.643136, 17.807032)"><g><path d="M 4.84375 0.234375 C 4.070312 0.234375 3.390625 0.078125 2.796875 -0.234375 C 2.210938 -0.546875 1.757812 -0.976562 1.4375 -1.53125 C 1.125 -2.09375 0.96875 -2.742188 0.96875 -3.484375 L 0.96875 -8.25 L 3.1875 -8.25 L 3.1875 -3.75 C 3.1875 -3.15625 3.332031 -2.691406 3.625 -2.359375 C 3.914062 -2.023438 4.320312 -1.859375 4.84375 -1.859375 C 5.363281 -1.859375 5.765625 -2.023438 6.046875 -2.359375 C 6.335938 -2.703125 6.484375 -3.164062 6.484375 -3.75 L 6.484375 -8.25 L 8.703125 -8.25 L 8.703125 -3.484375 C 8.703125 -2.742188 8.539062 -2.09375 8.21875 -1.53125 C 7.90625 -0.976562 7.457031 -0.546875 6.875 -0.234375 C 6.289062 0.078125 5.613281 0.234375 4.84375 0.234375 Z M 4.84375 0.234375 "/></g></g></g><g fill="#e58013" fill-opacity="1"><g transform="translate(69.314096, 17.807032)"><g><path d="M 5.28125 -8.296875 L 6.015625 -8.296875 L 6.015625 -6.1875 L 5.0625 -6.1875 C 4.425781 -6.1875 3.972656 -6.035156 3.703125 -5.734375 C 3.429688 -5.441406 3.296875 -4.960938 3.296875 -4.296875 L 3.296875 0 L 1.0625 0 L 1.0625 -8.25 L 2.5 -8.25 L 2.90625 -7.25 C 3.46875 -7.945312 4.257812 -8.296875 5.28125 -8.296875 Z M 5.28125 -8.296875 "/></g></g></g><g fill="#e58013" fill-opacity="1"><g transform="translate(75.532235, 17.807032)"><g><path d="M 7.8125 -8.265625 L 9.46875 -8.265625 L 9.46875 -0.015625 L 7.71875 -0.015625 L 7.53125 -0.75 C 7.175781 -0.445312 6.769531 -0.207031 6.3125 -0.03125 C 5.863281 0.144531 5.378906 0.234375 4.859375 0.234375 C 4.035156 0.234375 3.296875 0.0390625 2.640625 -0.34375 C 1.992188 -0.726562 1.476562 -1.25 1.09375 -1.90625 C 0.71875 -2.5625 0.53125 -3.304688 0.53125 -4.140625 C 0.53125 -4.960938 0.71875 -5.703125 1.09375 -6.359375 C 1.476562 -7.015625 1.992188 -7.53125 2.640625 -7.90625 C 3.296875 -8.289062 4.035156 -8.484375 4.859375 -8.484375 C 5.390625 -8.484375 5.882812 -8.394531 6.34375 -8.21875 C 6.800781 -8.039062 7.207031 -7.789062 7.5625 -7.46875 Z M 5.046875 -1.875 C 5.472656 -1.875 5.851562 -1.96875 6.1875 -2.15625 C 6.53125 -2.351562 6.800781 -2.625 7 -2.96875 C 7.195312 -3.3125 7.296875 -3.703125 7.296875 -4.140625 C 7.296875 -4.566406 7.195312 -4.953125 7 -5.296875 C 6.800781 -5.640625 6.53125 -5.910156 6.1875 -6.109375 C 5.851562 -6.304688 5.472656 -6.40625 5.046875 -6.40625 C 4.609375 -6.40625 4.21875 -6.304688 3.875 -6.109375 C 3.539062 -5.910156 3.273438 -5.640625 3.078125 -5.296875 C 2.890625 -4.953125 2.796875 -4.566406 2.796875 -4.140625 C 2.796875 -3.703125 2.890625 -3.3125 3.078125 -2.96875 C 3.273438 -2.632812 3.539062 -2.367188 3.875 -2.171875 C 4.21875 -1.972656 4.609375 -1.875 5.046875 -1.875 Z M 5.046875 -1.875 "/></g></g></g><g fill="#264790" fill-opacity="1"><g transform="translate(86.075363, 17.807032)"><g><path d="M 5.78125 -8.453125 C 6.71875 -8.453125 7.457031 -8.140625 8 -7.515625 C 8.539062 -6.890625 8.8125 -6.050781 8.8125 -5 L 8.8125 0 L 6.59375 0 L 6.59375 -4.640625 C 6.59375 -5.878906 6.113281 -6.5 5.15625 -6.5 C 4.582031 -6.5 4.128906 -6.300781 3.796875 -5.90625 C 3.460938 -5.519531 3.296875 -5 3.296875 -4.34375 L 3.296875 0 L 1.0625 0 L 1.0625 -8.25 L 2.59375 -8.25 L 3.046875 -7.234375 C 3.347656 -7.609375 3.738281 -7.90625 4.21875 -8.125 C 4.695312 -8.34375 5.21875 -8.453125 5.78125 -8.453125 Z M 5.78125 -8.453125 "/></g></g></g><g fill="#264790" fill-opacity="1"><g transform="translate(95.868548, 17.807032)"><g><path d="M 5.109375 -1.984375 L 6.109375 -1.984375 L 6.109375 0 L 4.53125 0 C 3.625 0 2.910156 -0.257812 2.390625 -0.78125 C 1.867188 -1.3125 1.609375 -2.035156 1.609375 -2.953125 L 1.609375 -6.46875 L 0.109375 -6.46875 L 0.109375 -6.9375 L 3.375 -10.40625 L 3.796875 -10.40625 L 3.796875 -8.25 L 6.0625 -8.25 L 6.0625 -6.46875 L 3.828125 -6.46875 L 3.828125 -3.234375 C 3.828125 -2.835938 3.9375 -2.53125 4.15625 -2.3125 C 4.382812 -2.09375 4.703125 -1.984375 5.109375 -1.984375 Z M 5.109375 -1.984375 "/></g></g></g><g fill="#e58013" fill-opacity="1"><g transform="translate(102.442338, 17.807032)"><g/></g></g><g fill="#264790" fill-opacity="1"><g transform="translate(30.663204, 27.730842)"><g><path d="M 2.390625 0.09375 C 2.023438 0.09375 1.695312 0.015625 1.40625 -0.140625 C 1.125 -0.296875 0.898438 -0.507812 0.734375 -0.78125 C 0.566406 -1.0625 0.484375 -1.378906 0.484375 -1.734375 L 0.484375 -4.625 L 1.484375 -4.625 L 1.484375 -1.78125 C 1.484375 -1.5 1.566406 -1.269531 1.734375 -1.09375 C 1.910156 -0.925781 2.128906 -0.84375 2.390625 -0.84375 C 2.660156 -0.84375 2.878906 -0.925781 3.046875 -1.09375 C 3.222656 -1.269531 3.3125 -1.5 3.3125 -1.78125 L 3.3125 -4.625 L 4.296875 -4.625 L 4.296875 -1.734375 C 4.296875 -1.378906 4.210938 -1.0625 4.046875 -0.78125 C 3.890625 -0.507812 3.664062 -0.296875 3.375 -0.140625 C 3.082031 0.015625 2.753906 0.09375 2.390625 0.09375 Z M 2.390625 0.09375 "/></g></g></g><g fill="#264790" fill-opacity="1"><g transform="translate(38.633534, 27.730842)"><g><path d="M 3.46875 -4.625 L 4.4375 -4.625 L 4.4375 0 L 3.609375 0 L 1.515625 -2.890625 L 1.515625 0 L 0.53125 0 L 0.53125 -4.625 L 1.4375 -4.625 L 3.46875 -1.796875 Z M 3.46875 -4.625 "/></g></g></g><g fill="#264790" fill-opacity="1"><g transform="translate(46.78885, 27.730842)"><g><path d="M 0.53125 0 L 0.53125 -4.625 L 1.53125 -4.625 L 1.53125 0 Z M 0.53125 0 "/></g></g></g><g fill="#264790" fill-opacity="1"><g transform="translate(52.037239, 27.730842)"><g><path d="M 3.46875 -4.625 L 4.546875 -4.625 L 2.8125 0 L 1.859375 0 L 0.046875 -4.625 L 1.15625 -4.625 L 2.328125 -1.359375 Z M 3.46875 -4.625 "/></g></g></g><g fill="#264790" fill-opacity="1"><g transform="translate(59.862221, 27.730842)"><g><path d="M 1.53125 -0.9375 L 3.375 -0.9375 L 3.375 0 L 0.53125 0 L 0.53125 -4.625 L 3.3125 -4.625 L 3.3125 -3.703125 L 1.53125 -3.703125 L 1.53125 -2.796875 L 3.140625 -2.796875 L 3.140625 -1.890625 L 1.53125 -1.890625 Z M 1.53125 -0.9375 "/></g></g></g><g fill="#264790" fill-opacity="1"><g transform="translate(66.742451, 27.730842)"><g><path d="M 3.078125 0 L 2.171875 -1.578125 L 1.53125 -1.578125 L 1.53125 0 L 0.53125 0 L 0.53125 -4.625 L 2.40625 -4.625 C 2.707031 -4.625 2.976562 -4.554688 3.21875 -4.421875 C 3.46875 -4.296875 3.660156 -4.117188 3.796875 -3.890625 C 3.941406 -3.660156 4.015625 -3.394531 4.015625 -3.09375 C 4.015625 -2.789062 3.9375 -2.519531 3.78125 -2.28125 C 3.632812 -2.050781 3.429688 -1.875 3.171875 -1.75 L 4.203125 0 Z M 1.53125 -3.703125 L 1.53125 -2.5 L 2.328125 -2.5 C 2.535156 -2.5 2.695312 -2.554688 2.8125 -2.671875 C 2.9375 -2.785156 3 -2.925781 3 -3.09375 C 3 -3.269531 2.9375 -3.414062 2.8125 -3.53125 C 2.695312 -3.644531 2.535156 -3.703125 2.328125 -3.703125 Z M 1.53125 -3.703125 "/></g></g></g><g fill="#264790" fill-opacity="1"><g transform="translate(74.296562, 27.730842)"><g><path d="M 2.0625 0.09375 C 1.707031 0.09375 1.394531 0.03125 1.125 -0.09375 C 0.863281 -0.226562 0.65625 -0.410156 0.5 -0.640625 C 0.34375 -0.878906 0.265625 -1.164062 0.265625 -1.5 L 1.28125 -1.5 C 1.28125 -1.269531 1.359375 -1.101562 1.515625 -1 C 1.671875 -0.894531 1.851562 -0.84375 2.0625 -0.84375 C 2.1875 -0.84375 2.300781 -0.863281 2.40625 -0.90625 C 2.519531 -0.945312 2.613281 -1.003906 2.6875 -1.078125 C 2.757812 -1.160156 2.796875 -1.257812 2.796875 -1.375 C 2.796875 -1.5 2.753906 -1.59375 2.671875 -1.65625 C 2.585938 -1.726562 2.472656 -1.785156 2.328125 -1.828125 C 2.191406 -1.867188 2.039062 -1.910156 1.875 -1.953125 C 1.707031 -1.992188 1.53125 -2.039062 1.34375 -2.09375 C 1.164062 -2.15625 1 -2.234375 0.84375 -2.328125 C 0.6875 -2.421875 0.5625 -2.546875 0.46875 -2.703125 C 0.382812 -2.867188 0.34375 -3.078125 0.34375 -3.328125 C 0.34375 -3.765625 0.492188 -4.101562 0.796875 -4.34375 C 1.097656 -4.59375 1.503906 -4.71875 2.015625 -4.71875 C 2.546875 -4.71875 2.957031 -4.582031 3.25 -4.3125 C 3.539062 -4.039062 3.6875 -3.675781 3.6875 -3.21875 L 2.6875 -3.21875 C 2.6875 -3.414062 2.613281 -3.5625 2.46875 -3.65625 C 2.332031 -3.757812 2.171875 -3.8125 1.984375 -3.8125 C 1.828125 -3.8125 1.675781 -3.773438 1.53125 -3.703125 C 1.394531 -3.628906 1.328125 -3.519531 1.328125 -3.375 C 1.328125 -3.257812 1.367188 -3.171875 1.453125 -3.109375 C 1.535156 -3.046875 1.644531 -2.992188 1.78125 -2.953125 C 1.914062 -2.910156 2.066406 -2.867188 2.234375 -2.828125 C 2.398438 -2.785156 2.578125 -2.734375 2.765625 -2.671875 C 2.953125 -2.609375 3.125 -2.523438 3.28125 -2.421875 C 3.4375 -2.328125 3.5625 -2.195312 3.65625 -2.03125 C 3.757812 -1.863281 3.8125 -1.648438 3.8125 -1.390625 C 3.8125 -1.054688 3.734375 -0.78125 3.578125 -0.5625 C 3.421875 -0.34375 3.207031 -0.175781 2.9375 -0.0625 C 2.675781 0.0390625 2.382812 0.09375 2.0625 0.09375 Z M 2.0625 0.09375 "/></g></g></g><g fill="#264790" fill-opacity="1"><g transform="translate(81.573193, 27.730842)"><g><path d="M 0.53125 0 L 0.53125 -4.625 L 1.53125 -4.625 L 1.53125 0 Z M 0.53125 0 "/></g></g></g><g fill="#264790" fill-opacity="1"><g transform="translate(86.82158, 27.730842)"><g><path d="M 3.71875 -4.625 L 3.71875 -3.6875 L 2.4375 -3.6875 L 2.4375 0 L 1.421875 0 L 1.421875 -3.6875 L 0.140625 -3.6875 L 0.140625 -4.625 Z M 3.71875 -4.625 "/></g></g></g><g fill="#264790" fill-opacity="1"><g transform="translate(93.866981, 27.730842)"><g><path d="M 4.375 -4.625 L 2.75 -1.875 L 2.75 0 L 1.71875 0 L 1.71875 -1.875 L 0.109375 -4.625 L 1.171875 -4.625 L 2.25 -2.78125 L 3.3125 -4.625 Z M 4.375 -4.625 "/></g></g></g></svg>